<?xml version="1.0" encoding="utf-8"?>
<!-- Generator: Adobe Illustrator 26.0.1, SVG Export Plug-In . SVG Version: 6.00 Build 0)  -->
<svg version="1.1" id="Layer_1" zoomAndPan="disable"
	 xmlns="http://www.w3.org/2000/svg" xmlns:xlink="http://www.w3.org/1999/xlink" x="0px" y="0px" viewBox="0 0 16 16"
	 style="enable-background:new 0 0 16 16;" xml:space="preserve">
<style type="text/css">
	.st0{display:none;fill:none;stroke:#FFFFFF;stroke-width:2;}
	.st1{fill:#FFFFFF;}
</style>
<line class="st0" x1="0" y1="1" x2="16" y2="1"/>
<line class="st1" x1="8" y1="13" x2="8" y2="1"/>
<line class="st0" x1="0" y1="13" x2="16" y2="13"/>
<g>
	<path class="st1" d="M15.1,8c0.1,6.2-7.7,9.4-12.1,5C0.3,10.4,0.3,5.6,3,3C7.3-1.4,15.2,1.8,15.1,8L15.1,8z M14.1,8
		c0.1-5.3-6.7-8.1-10.4-4.3C1.4,6,1.4,10,3.7,12.3C7.4,16.1,14.1,13.3,14.1,8L14.1,8z"/>
</g>
<rect x="7.5" y="1.4" class="st1" width="1" height="13.1"/>
</svg>
